 http://bayimg.com/HAHGPAAED
Nubiles_Melanie_Jane.wmv
Format                                   : Windows Media
File size                                : 597 MiB
Duration                                 : 22mn 58s
Overall bit rate mode                    : Constant
Overall bit rate                         : 3 631 Kbps
Maximum Overall bit rate                 : 3 659 Kbps
Encoded date                             : UTC 2010-01-05 23:31:38.159
Writing application                      : TMPGEnc 4.0 XPress Version. 4.2.3.193

Video
ID                                       : 2
Format                                   : VC-1
Format profile                           : MP@HL
Codec ID                                 : WMV3
Codec ID/Info                            : Windows Media Video 9
Codec ID/Hint                            : WMV3
Description of the codec                 : Windows Media Video 9 - Professional
Duration                                 : 22mn 58s
Bit rate mode                            : Constant
Bit rate                                 : 3 500 Kbps
Width                                    : 1 280 pixels
Height                                   : 720 pixels
Display aspect ratio                     : 16:9
Frame rate                               : 29.970 fps
Bit depth                                : 8 bits
Scan type                                : Progressive
Compression mode                         : Lossy
Bits/(Pixel*Frame)                       : 0.127
Stream size                              : 575 MiB (96%)
Language                                 : English (US)

Audio
ID                                       : 1
Format                                   : WMA
Format version                           : Version 2
Codec ID                                 : 161
Codec ID/Info                            : Windows Media Audio
Description of the codec                 : Windows Media Audio 9.2 - 128 kbps, 48 kHz, stereo 1-pass CBR
Duration                                 : 22mn 58s
Bit rate mode                            : Constant
Bit rate                                 : 128 Kbps
Channel(s)                               : 2 channels
Sampling rate                            : 48.0 KHz
Bit depth                                : 16 bits
Stream size                              : 21.0 MiB (4%)
Language                                 : English (US)

